<svg width="1080" height="1350" viewBox="0 0 1080 1350" fill="none" xmlns="http://www.w3.org/2000/svg">
<path fill-rule="evenodd" clip-rule="evenodd" d="M718.675 229.3C674.394 219.428 628.492 249.039 604.451 298.517C586.647 275.12 562.006 260.47 534.568 260.007C506.827 259.538 481.455 273.657 462.812 296.888C440.268 247.382 395.78 216.839 351.572 225.137C314.879 232.024 287.683 263.924 277.719 305.632C233.345 281.377 183.454 282.332 152.997 312.061C122.928 341.41 120.376 390.434 142.53 435.013C98.5092 450.643 67.7649 484.722 67.0883 524.746C66.4305 563.661 94.3725 597.921 135.877 615.515C111.668 633.419 96.4416 658.537 95.9677 686.572C95.224 730.562 131.025 768.603 181.65 783.347C150.477 822.498 142.736 871.265 166.232 906.329C187.8 938.514 230.017 950.69 273.926 941.613C257.76 992.642 269.813 1044.32 307.389 1068.03C343.119 1090.58 391.678 1081.38 429.899 1048.94C445.31 1093.66 479.6 1125 519.936 1125.68C560.74 1126.37 596.421 1095.49 613.097 1050.48C650.126 1083.8 698.049 1094.43 734.342 1073.21C772.698 1050.78 786.49 999.538 772.059 947.992C815.635 958.547 858.24 947.805 880.883 916.367C905.551 882.119 899.462 833.118 869.631 792.936C920.725 779.911 957.792 743.102 958.536 699.112C959.01 671.077 944.641 645.459 921.052 626.747C963.127 610.566 992.212 577.269 992.87 538.354C993.547 498.331 963.972 463.231 920.505 446.123C944.153 402.317 943.259 353.236 914.199 322.887C884.764 292.146 834.934 289.505 789.764 312.247C781.217 270.225 755.114 237.424 718.675 229.3Z" fill="#FFDCE7"/>
<path d="M654.538 169.924C653.588 164.814 648.081 162.163 643.371 164.38L584.914 191.889L543.507 131.644C540.298 126.977 533.434 126.861 530.071 131.417L486.955 189.816L429.21 160.642C424.607 158.316 419.077 160.736 417.927 165.754C413.726 184.081 406.652 224.426 418.788 248.806C434.868 281.109 486.034 320.299 539.682 321.205C593.33 322.112 634.328 284.481 650.917 252.73C663.399 228.84 657.985 188.457 654.538 169.924Z" fill="#FB6AEC"/>
<path d="M704.189 340.546C708.992 340.893 715.235 341.496 720.002 342.278C721.962 342.518 725.069 343.457 727.287 343.865C729.589 344.362 732.335 344.868 734.572 345.453C735.967 345.817 737.854 346.55 739.421 346.999C740.884 347.419 742.733 348.059 744.269 348.545C744.709 348.685 746.437 349.579 747.899 350.071C748.5 350.273 750.232 351.113 751.529 351.597C752.563 351.982 754.026 352.656 755.16 353.122C756.291 353.588 757.68 354.151 758.79 354.648C760.012 355.195 761.314 355.65 762.42 356.174C762.546 356.233 763.511 357.021 764.832 357.679C808.067 382.497 839.957 422.022 859.121 474.95C859.805 477.161 860.893 480.323 861.434 482.31C861.812 483.699 862.219 485.319 862.578 486.723C862.935 488.116 863.416 489.834 863.722 491.135C864.077 492.644 864.659 494.582 864.866 495.547C865.223 497.207 865.896 499.366 866.01 499.959C866.364 501.79 866.836 504.083 867.13 505.835C867.515 508.134 867.885 510.846 868.224 513.175C868.555 515.449 869.074 518.381 869.319 520.515C869.679 523.655 870.134 527.708 870.364 530.782C870.702 535.673 871.252 542.166 871.31 546.905C871.483 553.744 871.36 562.043 870.939 568.863C870.709 573.605 869.968 580.082 869.448 584.945C869.163 587.463 868.487 591.016 868.081 593.707C867.755 595.877 867.137 598.671 866.739 601.006C866.357 603.249 865.847 606.056 865.397 608.305C865.053 610.026 864.493 612.334 864.08 614.14C863.945 614.729 863.198 616.882 862.788 618.51C862.505 619.632 861.885 621.454 861.495 622.881C861.14 624.184 860.608 625.865 860.203 627.252C859.797 628.638 859.334 630.261 858.91 631.623C850.973 653.385 839.982 673.53 827.826 692.22C826.72 693.921 825.494 695.536 824.17 697.073L546.438 1019.54C528.001 1040.95 494.732 1040.42 476.985 1018.44L212.085 690.288C211.261 689.267 210.482 688.224 209.75 687.135C196.975 668.121 183.636 642.68 176.669 620.09C176.266 618.784 175.955 617.184 175.525 615.678C175.145 614.347 174.742 612.661 174.38 611.265C174.026 609.896 173.534 608.133 173.236 606.853C172.832 605.117 172.489 602.854 172.117 600.977C171.752 599.137 171.316 596.905 170.998 595.101C170.666 593.22 170.148 590.94 169.879 589.225C169.461 586.565 169.137 583.174 168.809 580.422C168.552 577.628 167.905 574.113 167.739 571.618C167.268 565.91 166.926 558.268 166.842 552.567C166.838 548.214 166.886 543.74 167.065 539.393C167.261 533.722 168.067 526.194 168.605 520.383C168.944 517.262 169.559 513.387 169.997 510.157C170.271 508.126 170.954 505.101 171.339 502.858C171.719 500.638 172.222 497.752 172.681 495.559C173.05 493.797 173.571 491.508 173.998 489.725C174.175 488.984 174.882 486.889 175.29 485.354C175.762 483.434 176.13 481.232 176.608 479.519C176.975 478.202 177.49 476.497 177.9 475.148C177.947 474.994 178.554 474.126 179.168 472.241C198.263 415.429 236.164 372.299 282.917 349.048C284.314 348.353 285.75 347.739 287.212 347.195C287.66 347.028 288.104 346.862 288.53 346.698C289.682 346.254 291.106 345.687 292.21 345.296C293.399 344.875 294.936 344.202 295.89 343.894C297.245 343.456 299.053 342.641 299.569 342.492C301.085 342.055 303.013 341.472 304.467 341.11C306.056 340.715 308.284 339.957 309.365 339.729C311.305 339.319 313.657 338.696 315.481 338.368C317.742 337.962 320.68 337.302 322.816 337.028C326.484 336.549 331.434 335.937 335.023 335.77C342.588 335.3 353.063 335.477 360.607 336.202C364.189 336.49 369.116 337.27 372.765 337.872C374.89 338.219 377.805 338.977 380.05 339.46C381.841 339.844 384.235 340.54 386.117 341.026C387.468 341.375 389.475 342.115 390.966 342.573C392.455 343.029 394.357 343.601 395.814 344.119C396.665 344.421 398.268 345.182 399.444 345.644C400.533 346.072 401.942 346.687 403.074 347.17C404.242 347.668 405.604 348.188 406.704 348.696C407.955 349.273 409.243 349.689 410.334 350.221C411.878 350.974 413.182 351.334 413.965 351.747C427.218 358.735 446.524 373.675 457.888 384.704C468.118 394.633 514.55 457.765 518.783 458.947C519.582 459.17 521.631 459.204 522.438 459.008C526.793 457.95 576.327 395.144 587.051 385.423C598.734 374.832 616.265 362.499 629.602 355.392C630.255 355.044 631.477 354.892 633.281 353.99C634.872 353.318 635.613 352.619 635.742 352.568C636.899 352.108 638.263 351.598 639.422 351.166C640.587 350.732 642.028 350.131 643.102 349.764C644.41 349.316 646.058 348.589 646.781 348.362C648.297 347.886 650.122 347.418 651.679 346.98C653.235 346.543 655.088 345.977 656.577 345.599C658.134 345.203 660.095 344.522 661.475 344.217C663.43 343.785 665.704 343.226 667.591 342.856C670.221 342.341 673.467 341.925 676.144 341.537C680.988 341.069 687.275 340.396 692.006 340.34C696.035 340.293 700.165 340.364 704.189 340.546Z" fill="#FB6AEC"/>
<path d="M706.665 794.045C700.982 790.612 695.081 790.026 688.581 789.765C693.692 786.062 698.779 778.954 699.936 772.678C704.393 748.522 675.359 754.054 665.973 766.748C668.44 756.677 660.329 737.913 648.456 739.151C641.386 739.888 635.014 750.411 633.807 756.7C633.178 759.98 633.661 763.294 633.122 766.538C627.719 758.437 616.519 753.007 606.688 755.032C592.832 757.886 600.318 783.689 610.1 788.438C602.434 788.356 594.164 789.49 588.038 794.459C570.983 808.293 595.211 824.258 609.54 821.604C598.383 827.822 590.095 855.26 609.126 856.328C617.759 856.812 626.476 850.939 632.142 844.967C629.369 857.05 640.857 880.95 655.237 869.894C662.312 864.455 665.313 854.118 664.987 845.522C669.846 854.068 689.307 862.577 696.495 853.485C703.237 844.957 695.874 828.662 688.02 822.931C705.169 826.146 729.208 807.662 706.665 794.045ZM648.566 831.607C634.369 831.367 623.055 819.672 623.295 805.486C623.535 791.3 635.238 779.994 649.435 780.234C663.631 780.474 674.945 792.169 674.705 806.355C674.466 820.541 662.763 831.847 648.566 831.607Z" fill="#FFA3EA"/>
<path d="M797.214 653.401C791.531 649.969 785.63 649.383 779.13 649.121C784.24 645.418 789.328 638.31 790.485 632.035C794.942 607.879 765.907 613.41 756.521 626.104C758.989 616.033 750.878 597.269 739.005 598.507C731.935 599.245 725.563 609.767 724.356 616.057C723.727 619.336 724.21 622.65 723.671 625.894C718.268 617.794 707.067 612.364 697.237 614.389C683.381 617.243 690.867 643.045 700.649 647.795C692.983 647.713 684.712 648.847 678.587 653.815C661.532 667.649 685.76 683.614 700.088 680.961C688.931 687.179 680.643 714.617 699.674 715.684C708.308 716.168 717.025 710.296 722.691 704.324C719.918 716.407 731.405 740.306 745.786 729.25C752.86 723.811 755.862 713.474 755.535 704.879C760.395 713.425 779.856 721.933 787.044 712.841C793.786 704.314 786.423 688.018 778.569 682.287C795.718 685.502 819.757 667.019 797.214 653.401ZM739.115 690.964C724.918 690.724 713.604 679.029 713.844 664.843C714.084 650.656 725.787 639.351 739.983 639.591C754.18 639.831 765.494 651.525 765.254 665.712C765.014 679.898 753.311 691.204 739.115 690.964Z" fill="#FFA3EA"/>
<path d="M613.645 660.253C607.962 656.82 602.062 656.234 595.562 655.973C600.672 652.27 605.759 645.162 606.917 638.886C611.373 614.73 582.339 620.262 572.953 632.956C575.42 622.885 567.31 604.121 555.436 605.359C548.366 606.096 541.994 616.619 540.788 622.908C540.159 626.188 540.642 629.502 540.103 632.746C534.7 624.645 523.499 619.216 513.669 621.24C499.812 624.094 507.298 649.897 517.081 654.646C509.414 654.564 501.144 655.698 495.019 660.667C477.964 674.501 502.192 690.466 516.52 687.812C505.363 694.03 497.075 721.468 516.106 722.536C524.739 723.02 533.456 717.147 539.123 711.175C536.349 723.258 547.837 747.158 562.218 736.102C569.292 730.663 572.293 720.326 571.967 711.73C576.827 720.276 596.288 728.785 603.476 719.693C610.218 711.165 602.854 694.87 595.001 689.139C612.149 692.354 636.188 673.87 613.645 660.253ZM555.547 697.815C541.35 697.575 530.036 685.88 530.276 671.694C530.515 657.508 542.218 646.202 556.415 646.442C570.612 646.682 581.926 658.377 581.686 672.563C581.446 686.749 569.743 698.055 555.547 697.815Z" fill="#FFA3EA"/>
<path d="M839.906 483.469C834.223 480.036 828.322 479.45 821.822 479.189C826.933 475.486 832.02 468.378 833.178 462.102C837.634 437.947 808.6 443.478 799.214 456.172C801.681 446.101 793.57 427.337 781.697 428.575C774.627 429.312 768.255 439.835 767.049 446.125C766.419 449.404 766.902 452.718 766.364 455.962C760.961 447.862 749.76 442.432 739.929 444.457C726.073 447.311 733.559 473.113 743.342 477.863C735.675 477.781 727.405 478.914 721.28 483.883C704.225 497.717 728.452 513.682 742.781 511.029C731.624 517.247 723.336 544.684 742.367 545.752C751 546.236 759.717 540.364 765.383 534.391C762.61 546.475 774.098 570.374 788.478 559.318C795.553 553.879 798.554 543.542 798.228 534.947C803.088 543.493 822.549 552.001 829.737 542.909C836.478 534.382 829.115 518.086 821.262 512.355C838.41 515.57 862.449 497.087 839.906 483.469ZM781.807 521.031C767.611 520.791 756.296 509.097 756.536 494.91C756.776 480.724 768.479 469.419 782.676 469.659C796.872 469.899 808.186 481.593 807.947 495.78C807.707 509.966 796.004 521.271 781.807 521.031Z" fill="#FFA3EA"/>
<path d="M684.215 439.596C678.532 436.163 672.631 435.577 666.131 435.316C671.241 431.613 676.329 424.504 677.486 418.229C681.943 394.073 652.908 399.605 643.522 412.298C645.99 402.228 637.879 383.463 626.006 384.702C618.936 385.439 612.564 395.962 611.357 402.251C610.728 405.531 611.211 408.844 610.672 412.089C605.269 403.988 594.068 398.558 584.238 400.583C570.382 403.437 577.868 429.24 587.65 433.989C579.984 433.907 571.713 435.041 565.588 440.009C548.533 453.843 572.761 469.809 587.089 467.155C575.932 473.373 567.644 500.811 586.675 501.878C595.309 502.363 604.025 496.49 609.692 490.518C606.919 502.601 618.406 526.5 632.787 515.444C639.861 510.006 642.863 499.669 642.536 491.073C647.396 499.619 666.857 508.128 674.045 499.036C680.787 490.508 673.424 474.212 665.57 468.482C682.719 471.697 706.758 453.213 684.215 439.596ZM626.116 477.158C611.919 476.918 600.605 465.223 600.845 451.037C601.085 436.851 612.788 425.545 626.984 425.785C641.181 426.025 652.495 437.72 652.255 451.906C652.015 466.092 640.312 477.398 626.116 477.158Z" fill="#FFA3EA"/>
<path d="M526.337 525.098C520.654 521.665 514.753 521.079 508.253 520.818C513.363 517.115 518.451 510.007 519.608 503.731C524.065 479.576 495.031 485.107 485.644 497.801C488.112 487.73 480.001 468.966 468.128 470.204C461.058 470.941 454.686 481.464 453.479 487.754C452.85 491.033 453.333 494.347 452.794 497.591C447.391 489.49 436.19 484.061 426.36 486.086C412.504 488.94 419.99 514.742 429.772 519.491C422.106 519.41 413.835 520.543 407.71 525.512C390.655 539.346 414.883 555.311 429.211 552.657C418.054 558.875 409.766 586.313 428.797 587.381C437.431 587.865 446.148 581.993 451.814 576.02C449.041 588.103 460.528 612.003 474.909 600.947C481.983 595.508 484.985 585.171 484.658 576.576C489.518 585.121 508.979 593.63 516.167 584.538C522.909 576.011 515.546 559.715 507.692 553.984C524.841 557.199 548.88 538.716 526.337 525.098ZM468.238 562.66C454.041 562.42 442.727 550.726 442.967 536.539C443.207 522.353 454.91 511.047 469.106 511.287C483.303 511.527 494.617 523.222 494.377 537.408C494.137 551.595 482.434 562.9 468.238 562.66Z" fill="#FFA3EA"/>
<path d="M409.365 378.065C403.682 374.632 397.781 374.046 391.281 373.785C396.392 370.082 401.479 362.974 402.637 356.698C407.093 332.542 378.059 338.074 368.673 350.768C371.14 340.697 363.029 321.933 351.156 323.171C344.086 323.908 337.714 334.431 336.508 340.72C335.878 344 336.361 347.314 335.823 350.558C330.42 342.457 319.219 337.028 309.388 339.052C295.532 341.906 303.018 367.709 312.8 372.458C305.134 372.376 296.864 373.51 290.739 378.479C273.684 392.313 297.911 408.278 312.24 405.624C301.083 411.842 292.795 439.28 311.826 440.348C320.459 440.832 329.176 434.959 334.842 428.987C332.069 441.07 343.557 464.97 357.937 453.914C365.012 448.475 368.013 438.138 367.687 429.542C372.547 438.088 392.008 446.597 399.196 437.505C405.937 428.977 398.574 412.682 390.721 406.951C407.869 410.166 431.908 391.682 409.365 378.065ZM351.266 415.627C337.07 415.387 325.755 403.692 325.995 389.506C326.235 375.32 337.938 364.014 352.135 364.254C366.331 364.494 377.645 376.189 377.406 390.375C377.166 404.561 365.463 415.867 351.266 415.627Z" fill="#FFA3EA"/>
<path d="M312.019 500.143C306.336 496.71 300.436 496.124 293.936 495.863C299.046 492.16 304.133 485.051 305.291 478.776C309.747 454.62 280.713 460.152 271.327 472.845C273.794 462.775 265.684 444.01 253.81 445.248C246.74 445.986 240.369 456.509 239.162 462.798C238.533 466.077 239.016 469.391 238.477 472.635C233.074 464.535 221.873 459.105 212.043 461.13C198.187 463.984 205.672 489.786 215.455 494.536C207.788 494.454 199.518 495.588 193.393 500.556C176.338 514.39 200.566 530.355 214.894 527.702C203.737 533.92 195.449 561.358 214.48 562.425C223.113 562.91 231.83 557.037 237.497 551.065C234.724 563.148 246.211 587.047 260.592 575.991C267.666 570.552 270.667 560.216 270.341 551.62C275.201 560.166 294.662 568.675 301.85 559.583C308.592 551.055 301.228 534.759 293.375 529.029C310.523 532.243 334.562 513.76 312.019 500.143ZM253.921 537.705C239.724 537.465 228.41 525.77 228.65 511.584C228.889 497.398 240.592 486.092 254.789 486.332C268.986 486.572 280.3 498.267 280.06 512.453C279.82 526.639 268.117 537.945 253.921 537.705Z" fill="#FFA3EA"/>
<path d="M388.631 679.203C382.948 675.77 377.047 675.184 370.547 674.923C375.657 671.22 380.745 664.111 381.902 657.836C386.359 633.68 357.324 639.212 347.938 651.905C350.406 641.835 342.295 623.07 330.422 624.309C323.352 625.046 316.98 635.569 315.773 641.858C315.144 645.138 315.627 648.451 315.088 651.695C309.685 643.595 298.484 638.165 288.654 640.19C274.798 643.044 282.284 668.846 292.066 673.596C284.4 673.514 276.129 674.648 270.004 679.616C252.949 693.45 277.177 709.415 291.505 706.762C280.348 712.98 272.06 740.418 291.091 741.485C299.725 741.97 308.441 736.097 314.108 730.125C311.335 742.208 322.822 766.107 337.203 755.051C344.277 749.612 347.279 739.276 346.952 730.68C351.812 739.226 371.273 747.735 378.461 738.643C385.203 730.115 377.84 713.819 369.986 708.089C387.135 711.304 411.174 692.82 388.631 679.203ZM330.532 716.765C316.335 716.525 305.021 704.83 305.261 690.644C305.501 676.458 317.204 665.152 331.4 665.392C345.597 665.632 356.911 677.327 356.671 691.513C356.431 705.699 344.728 717.005 330.532 716.765Z" fill="#FFA3EA"/>
<path d="M454.566 816.802C448.883 813.369 442.983 812.783 436.482 812.522C441.593 808.819 446.68 801.711 447.838 795.435C452.294 771.28 423.26 776.811 413.874 789.505C416.341 779.434 408.231 760.67 396.357 761.908C389.287 762.645 382.915 773.168 381.709 779.458C381.08 782.737 381.562 786.051 381.024 789.295C375.621 781.195 364.42 775.765 354.589 777.79C340.733 780.644 348.219 806.446 358.002 811.196C350.335 811.114 342.065 812.247 335.94 817.216C318.885 831.05 343.113 847.015 357.441 844.362C346.284 850.58 337.996 878.017 357.027 879.085C365.66 879.569 374.377 873.697 380.044 867.724C377.27 879.808 388.758 903.707 403.139 892.651C410.213 887.212 413.214 876.875 412.888 868.28C417.748 876.826 437.209 885.334 444.397 876.242C451.138 867.715 443.775 851.419 435.922 845.688C453.07 848.903 477.109 830.42 454.566 816.802ZM396.467 854.364C382.271 854.124 370.957 842.43 371.196 828.243C371.436 814.057 383.139 802.752 397.336 802.992C411.533 803.232 422.847 814.926 422.607 829.113C422.367 843.299 410.664 854.604 396.467 854.364Z" fill="#FFA3EA"/>
<path d="M587.077 885.882C581.394 882.449 575.493 881.864 568.993 881.602C574.104 877.899 579.191 870.791 580.348 864.516C584.805 840.36 555.771 845.891 546.385 858.585C548.852 848.514 540.741 829.75 528.868 830.988C521.798 831.726 515.426 842.248 514.219 848.538C513.59 851.817 514.073 855.131 513.534 858.375C508.131 850.275 496.931 844.845 487.1 846.87C473.244 849.724 480.73 875.526 490.512 880.276C482.846 880.194 474.576 881.327 468.451 886.296C451.395 900.13 475.623 916.095 489.952 913.442C478.795 919.66 470.507 947.098 489.538 948.165C498.171 948.649 506.888 942.777 512.554 936.805C509.781 948.888 521.269 972.787 535.649 961.731C542.724 956.292 545.725 945.955 545.399 937.36C550.259 945.906 569.719 954.414 576.908 945.322C583.649 936.795 576.286 920.499 568.433 914.768C585.581 917.983 609.62 899.5 587.077 885.882ZM528.978 923.445C514.782 923.205 503.467 911.51 503.707 897.324C503.947 883.137 515.65 871.832 529.847 872.072C544.043 872.312 555.357 884.006 555.117 898.193C554.878 912.379 543.175 923.685 528.978 923.445Z" fill="#FFA3EA"/>
<path d="M692.653 347.565C694.612 347.598 696.571 347.659 698.505 347.746C703.108 348.079 709.094 348.656 713.664 349.406C715.543 349.635 718.521 350.535 720.648 350.927C722.854 351.403 725.487 351.888 727.632 352.448C728.969 352.798 730.778 353.5 732.28 353.93C733.683 354.333 735.456 354.947 736.928 355.412C737.35 355.546 739.007 356.403 740.408 356.875C740.984 357.068 742.645 357.873 743.889 358.337C744.879 358.706 746.282 359.352 747.369 359.799C748.454 360.245 749.785 360.785 750.849 361.261C752.021 361.786 753.269 362.221 754.329 362.723C754.45 362.781 755.375 363.536 756.641 364.166C798.09 387.952 828.663 425.832 847.035 476.558C847.69 478.677 848.734 481.708 849.253 483.613C849.615 484.943 850.005 486.496 850.35 487.841C850.692 489.177 851.153 490.823 851.446 492.07C851.786 493.516 852.344 495.374 852.543 496.298C852.885 497.889 853.53 499.959 853.64 500.527C853.979 502.282 854.431 504.479 854.713 506.159C855.082 508.362 855.437 510.961 855.762 513.193C856.08 515.373 856.577 518.182 856.812 520.227C857.157 523.237 857.593 527.121 857.814 530.068C858.138 534.755 858.665 540.978 858.721 545.52C858.886 552.074 858.768 560.028 858.365 566.564C858.145 571.109 857.434 577.317 856.936 581.977C856.663 584.39 856.014 587.796 855.626 590.375C855.313 592.454 854.721 595.132 854.339 597.37C853.973 599.519 853.484 602.209 853.053 604.365C852.723 606.015 852.185 608.227 851.79 609.957C851.661 610.522 850.944 612.585 850.551 614.146C850.28 615.22 849.685 616.967 849.312 618.335C848.971 619.583 848.462 621.195 848.073 622.524C847.684 623.853 847.24 625.408 846.834 626.713C839.225 647.569 828.687 666.877 817.035 684.789C815.974 686.419 814.799 687.967 813.53 689.44L547.275 998.49C538.428 1008.76 526.015 1013.76 513.692 1013.55C501.396 1013.35 489.189 1007.95 480.692 997.43L226.736 682.934C225.946 681.956 225.199 680.956 224.497 679.912C212.25 661.689 199.462 637.307 192.782 615.656C192.396 614.404 192.098 612.872 191.685 611.428C191.321 610.152 190.935 608.536 190.589 607.199C190.249 605.887 189.777 604.197 189.492 602.971C189.105 601.306 188.776 599.137 188.419 597.339C188.069 595.575 187.65 593.436 187.346 591.708C187.028 589.905 186.531 587.719 186.273 586.076C185.872 583.527 185.562 580.277 185.247 577.638C185.001 574.961 184.381 571.592 184.221 569.201C183.77 563.73 183.442 556.407 183.362 550.943C183.358 546.771 183.404 542.483 183.575 538.316C183.763 532.882 184.535 525.667 185.052 520.098C185.377 517.107 185.966 513.393 186.386 510.297C186.649 508.35 187.304 505.451 187.672 503.302C188.037 501.174 188.519 498.408 188.959 496.307C189.312 494.618 189.812 492.424 190.221 490.715C190.391 490.006 191.069 487.998 191.461 486.526C191.912 484.686 192.265 482.576 192.723 480.934C193.075 479.672 193.569 478.038 193.962 476.745C194.007 476.597 194.589 475.766 195.178 473.959C213.484 419.511 249.818 378.175 294.64 355.892C295.979 355.226 297.356 354.638 298.757 354.116C299.186 353.956 299.612 353.797 300.021 353.64C301.125 353.214 302.49 352.671 303.548 352.296C304.688 351.893 306.162 351.247 307.076 350.952C308.375 350.533 310.108 349.751 310.603 349.609C312.056 349.189 313.905 348.631 315.299 348.285C316.822 347.906 318.958 347.18 319.994 346.961C321.854 346.568 324.109 345.97 325.858 345.656C328.025 345.267 330.842 344.635 332.889 344.372C336.406 343.914 341.151 343.326 344.592 343.166C348.218 342.941 352.542 342.871 356.863 342.944C361.184 343.017 365.503 343.234 369.119 343.581C372.553 343.857 377.276 344.604 380.775 345.181C382.812 345.514 385.606 346.241 387.759 346.703C389.476 347.071 391.77 347.739 393.575 348.204C394.87 348.539 396.794 349.248 398.223 349.686C399.651 350.124 401.475 350.672 402.871 351.168C403.687 351.458 405.223 352.188 406.351 352.631C407.395 353.041 408.746 353.63 409.832 354.093C410.951 354.57 412.257 355.069 413.312 355.555C414.511 356.108 415.746 356.507 416.792 357.017C418.271 357.739 419.521 358.084 420.272 358.479C432.978 365.176 451.486 379.495 462.38 390.065C472.188 399.581 516.702 460.087 520.76 461.219C521.143 461.326 521.826 461.388 522.509 461.399C523.193 461.411 523.877 461.372 524.264 461.278C528.438 460.264 575.926 400.071 586.206 390.755C597.407 380.605 614.213 368.785 626.999 361.974C627.625 361.64 628.797 361.495 630.526 360.63C632.052 359.986 632.762 359.316 632.886 359.267C633.995 358.827 635.302 358.337 636.414 357.923C637.53 357.507 638.912 356.931 639.941 356.579C641.195 356.151 642.775 355.453 643.469 355.236C644.921 354.78 646.672 354.331 648.164 353.912C649.656 353.493 651.432 352.95 652.86 352.588C654.352 352.209 656.232 351.556 657.555 351.264C659.43 350.85 661.609 350.314 663.419 349.96C665.94 349.466 669.052 349.068 671.618 348.695C676.262 348.247 682.289 347.601 686.825 347.549C688.752 347.526 690.702 347.532 692.653 347.565ZM693.055 323.798C690.877 323.761 688.689 323.755 686.551 323.78C681.554 323.838 675.748 324.407 671.083 324.865L669.349 325.034L668.781 325.088L668.216 325.171L666.53 325.41C664.15 325.745 661.452 326.125 658.873 326.63C657.309 326.936 655.704 327.306 654.288 327.633C653.659 327.777 653.039 327.921 652.452 328.051C650.852 328.404 649.377 328.848 648.193 329.205C647.794 329.325 647.393 329.452 647.026 329.548C645.705 329.883 644.356 330.275 643.166 330.62C642.684 330.76 642.208 330.899 641.762 331.024C641.348 331.141 640.911 331.259 640.468 331.38C639.22 331.72 637.806 332.105 636.382 332.552C635.189 332.926 634.143 333.344 633.22 333.713C632.906 333.839 632.559 333.983 632.236 334.099C631.161 334.466 630.106 334.88 629.174 335.246C628.82 335.384 628.469 335.524 628.148 335.643C626.89 336.112 625.408 336.669 624.151 337.168C622.571 337.795 621.263 338.516 620.293 339.121C619.234 339.465 617.636 340.042 615.864 340.986C601.204 348.795 582.891 361.711 570.295 373.126C564.603 378.284 554.224 390.606 537.76 410.283C533.389 415.508 528.004 421.944 523.09 427.722C518.555 422.006 513.626 415.696 509.61 410.554C494.107 390.705 484.328 378.271 478.882 372.987C467.423 361.869 446.858 345.633 431.316 337.442C429.706 336.593 428.317 336.064 427.399 335.713C427.281 335.668 427.152 335.622 427.017 335.568C425.704 334.935 424.558 334.483 423.713 334.15C423.531 334.078 423.345 334.007 423.16 333.929C422.048 333.419 420.973 332.98 420.105 332.626C419.77 332.49 419.437 332.355 419.124 332.222L418.463 331.939C417.392 331.479 416.178 330.958 415.008 330.499C414.745 330.393 414.426 330.249 414.117 330.114C413.136 329.685 412.025 329.2 410.796 328.763C409.07 328.151 407.189 327.575 405.677 327.113L405.167 326.957C404.786 326.84 404.355 326.692 403.918 326.546C402.596 326.102 401.098 325.6 399.496 325.186C398.988 325.055 398.437 324.905 397.874 324.753C396.291 324.325 394.498 323.84 392.731 323.46C392.112 323.327 391.43 323.167 390.732 323.004C388.846 322.564 386.709 322.066 384.589 321.72C380.331 321.018 375.39 320.25 371.214 319.903C367.094 319.513 362.275 319.262 357.265 319.177C352.255 319.093 347.432 319.18 343.301 319.431C339.115 319.637 334.15 320.237 329.832 320.8C327.74 321.069 325.587 321.495 323.688 321.871C322.985 322.01 322.298 322.147 321.675 322.259C320.009 322.558 318.389 322.939 316.96 323.276C316.321 323.426 315.687 323.578 315.103 323.702C313.595 324.02 312.235 324.428 310.919 324.824C310.463 324.96 309.984 325.111 309.567 325.219C308.049 325.597 306.442 326.066 305.024 326.48L304.044 326.766C302.645 327.169 301.526 327.623 300.539 328.023C300.273 328.131 299.963 328.262 299.663 328.373C298.477 328.761 297.425 329.18 296.492 329.552C296.198 329.669 295.898 329.792 295.624 329.892C294.504 330.288 293.325 330.747 292.285 331.152L291.502 331.456C291.181 331.579 290.841 331.706 290.499 331.833C288.279 332.66 286.126 333.59 284.096 334.599C232.292 360.354 192.807 406.957 172.867 465.869C172.362 466.86 171.774 468.167 171.277 469.795C170.845 471.215 170.3 473.022 169.878 474.533C169.406 476.224 169.079 477.789 168.791 479.171C168.691 479.648 168.594 480.13 168.487 480.592C168.377 480.974 168.181 481.608 168.055 482.013C167.711 483.125 167.415 484.084 167.154 485.17C166.764 486.799 166.187 489.301 165.742 491.428C165.238 493.835 164.727 496.748 164.293 499.279C164.174 499.973 164.015 500.762 163.857 501.559C163.501 503.366 163.132 505.234 162.879 507.105C162.747 508.08 162.596 509.123 162.443 510.184C162.092 512.614 161.73 515.127 161.469 517.525L161.449 517.713L161.431 517.901C161.335 518.946 161.228 520.05 161.119 521.189C160.619 526.398 160.052 532.296 159.871 537.393C159.709 541.373 159.635 545.688 159.64 550.966L159.64 551.13L159.642 551.293C159.734 557.517 160.095 565.229 160.567 570.998C160.715 573.075 161.003 575.134 161.257 576.958C161.408 578.034 161.563 579.147 161.625 579.822L161.655 580.143L161.693 580.463C161.781 581.197 161.868 581.984 161.957 582.788C162.2 584.979 162.476 587.462 162.839 589.774C163.063 591.197 163.35 592.621 163.603 593.878C163.738 594.549 163.876 595.224 163.985 595.842C164.333 597.818 164.792 600.157 165.152 601.974C165.261 602.524 165.366 603.12 165.472 603.72C165.725 605.137 166.011 606.743 166.39 608.372C166.668 609.564 167.006 610.834 167.305 611.954C167.419 612.379 167.53 612.795 167.628 613.175C167.729 613.562 167.832 613.973 167.937 614.39C168.215 615.496 168.53 616.748 168.879 617.969C168.982 618.33 169.066 618.703 169.153 619.064C169.394 620.062 169.695 621.304 170.119 622.678C176.861 644.53 189.833 670.89 204.821 693.191C205.884 694.774 207.021 696.31 208.294 697.887L462.25 1012.38C474.776 1027.89 493.38 1036.98 513.29 1037.32C533.253 1037.66 552.184 1029.17 565.231 1014.02L831.486 704.972C833.476 702.662 835.3 700.239 836.907 697.769C851.095 675.959 861.63 655.386 869.113 634.873L869.309 634.338L869.478 633.794C869.828 632.669 870.204 631.382 870.558 630.167L870.835 629.215C870.962 628.782 871.103 628.316 871.245 627.846C871.585 626.722 871.928 625.576 872.192 624.609C872.305 624.194 872.454 623.729 872.593 623.279C872.903 622.278 873.254 621.142 873.55 619.968C873.627 619.672 873.882 618.86 874.019 618.424C874.343 617.393 874.648 616.42 874.913 615.261L875.245 613.832C875.598 612.316 875.999 610.597 876.312 609.036C876.752 606.835 877.28 603.969 877.723 601.37C877.859 600.572 878.03 599.704 878.199 598.838C878.509 597.246 878.829 595.6 879.082 593.92C879.206 593.097 879.362 592.175 879.52 591.234C879.885 589.062 880.262 586.816 880.507 584.653L880.515 584.58L880.523 584.506L880.72 582.682C881.21 578.148 881.819 572.517 882.051 567.877C882.475 560.911 882.62 552.404 882.438 545.053C882.378 540.759 882.014 535.781 881.692 531.382C881.616 530.351 881.543 529.354 881.479 528.421L881.474 528.356L881.469 528.29C881.229 525.083 880.803 521.215 880.378 517.511C880.17 515.692 879.871 513.813 879.583 511.996C879.459 511.216 879.336 510.451 879.236 509.759L879.003 508.142C878.736 506.28 878.434 504.17 878.107 502.218C877.847 500.669 877.511 498.963 877.214 497.458L876.93 496.009C876.703 494.836 876.432 493.86 876.145 492.828C876.024 492.394 875.799 491.586 875.73 491.276C875.5 490.206 875.214 489.153 874.937 488.135C874.801 487.635 874.648 487.094 874.536 486.618C874.305 485.633 873.994 484.451 873.686 483.293C873.56 482.822 873.436 482.358 873.327 481.93L873.107 481.07C872.792 479.834 872.455 478.519 872.139 477.356C871.658 475.592 871.031 473.664 870.425 471.798C870.163 470.992 869.906 470.205 869.695 469.525L869.528 468.982L869.334 468.448C849.006 412.321 815.057 370.295 768.431 343.539L768 343.291C767.3 342.8 766.087 341.999 764.46 341.229C763.239 340.651 762.114 340.2 761.292 339.87C761.035 339.767 760.773 339.667 760.518 339.554C759.27 338.996 757.919 338.442 756.834 337.996L756.379 337.809C756.086 337.689 755.759 337.545 755.427 337.402C754.471 336.987 753.39 336.519 752.229 336.084C751.92 335.959 751.59 335.808 751.297 335.678C750.377 335.272 749.428 334.853 748.291 334.454C748.069 334.359 747.856 334.258 747.679 334.177C746.806 333.778 745.609 333.231 744.07 332.745C743.625 332.604 743.148 332.447 742.664 332.288C741.483 331.9 740.145 331.461 738.809 331.078C738.451 330.972 738.054 330.831 737.661 330.698C736.541 330.318 735.146 329.846 733.617 329.447C731.518 328.899 729.398 328.464 727.527 328.081C726.878 327.948 726.24 327.818 725.639 327.688L725.289 327.613L724.938 327.548C724.651 327.493 723.795 327.283 723.229 327.145C721.408 326.7 719.364 326.2 717.131 325.888C710.704 324.857 703.185 324.252 700.211 324.037L699.894 324.014L699.576 324C697.422 323.903 695.228 323.835 693.055 323.798Z" fill="#FB243F"/>
<path d="M406.514 791.591C427.424 789.407 447.888 783.709 467.704 776.975C466.7 788.019 459.034 798.428 452.696 807.135C402.012 876.764 324.717 895.945 249.007 851.778C156.732 797.947 152.581 655.085 248.041 602.113C305.262 570.359 360.128 576.415 421.173 568.596C465.513 562.917 514.501 516.199 515.703 469.86C453.468 472.691 396.623 494.765 346.228 530.421C337.861 536.34 323.266 550.506 315.491 554.178C295.382 563.675 290.084 539.467 286.908 524.978C279.218 489.9 280.334 444.53 288.861 409.663C290.56 402.72 296.616 380.197 303.307 378.299C316.401 374.584 341.737 376.919 355.779 378.451C413.807 384.781 469.136 409.232 514.172 446.029C520.729 438.875 526.069 433.115 536.942 437.02C541.781 438.758 543.824 446.449 547.653 445.472C605.747 397.794 681.811 371.481 757.175 376.754C761.69 379.593 770.202 408.64 771.714 415.212C780.316 452.594 781.039 496.785 770.288 533.732C769.253 537.287 766.054 547.645 764.351 550.118C753.621 565.703 726.193 537.816 716.876 531.411C671.455 500.19 612.203 474.98 556.571 471.81C553.341 471.626 549.155 470.796 546.784 473.652C556.727 478.235 567.003 481.841 576.818 486.749C625.264 510.976 656.607 551.551 687.115 594.997C707.908 624.607 752.39 710.553 798.84 674.939C829.092 651.745 835.038 591.059 851.197 555.551C863.587 528.324 884.035 492.093 914.803 484.483L916.582 536.66L965.199 537.481C965.676 537.49 971.418 539.728 971.713 540.125C974.918 544.442 970.303 543.81 968.486 544.817C929.284 566.55 924.89 593.39 898.23 624.032C845.033 685.174 783.162 709.746 702.62 688.963C629.012 669.969 602.867 619.194 576.277 553.986C565.453 527.44 558.713 492.495 529.17 480.531C527.828 481.361 527.434 482.252 527.138 483.763C525.552 491.86 527.368 504.843 526.68 513.813C520.86 589.64 489.427 627.016 417.007 647.881C357.426 665.047 290.195 653.59 233.508 670.608C171.868 689.114 173.318 754.867 225.209 785.122C274.132 813.646 348.628 802.976 388.215 762.593C393.081 757.629 399.711 745.601 403.42 742.579C404.5 741.699 407.394 739.528 407.34 742.678L406.514 791.591Z" fill="#FB243F"/>
</svg>
