<svg width="540" height="535" viewBox="0 0 540 535" fill="none" xmlns="http://www.w3.org/2000/svg">
<path d="M409.088 0.0657461C412.772 0.269066 417.564 0.648985 421.228 1.18596C422.732 1.34395 425.126 2.02212 426.831 2.30617C428.601 2.65602 430.712 3.00814 432.434 3.42638C433.508 3.68713 434.964 4.22306 436.17 4.54659C437.297 4.84883 438.722 5.31488 439.905 5.66681C440.244 5.76766 441.58 6.4292 442.707 6.78702C443.169 6.93391 444.508 7.55416 445.508 7.90723C446.305 8.18851 447.435 8.68516 448.31 9.02744C449.183 9.36908 450.255 9.78208 451.112 10.1477C452.056 10.5504 453.059 10.8816 453.913 11.2679C454.011 11.3121 454.76 11.9022 455.781 12.3881C489.235 30.8157 514.185 60.6406 529.557 100.884C530.109 102.567 530.984 104.972 531.424 106.486C531.732 107.543 532.065 108.777 532.358 109.846C532.65 110.908 533.041 112.215 533.292 113.207C533.583 114.356 534.055 115.832 534.226 116.567C534.521 117.833 535.065 119.476 535.16 119.928C535.455 121.324 535.846 123.072 536.094 124.409C536.419 126.163 536.738 128.233 537.028 130.01C537.311 131.745 537.746 133.982 537.962 135.611C538.278 138.009 538.679 141.103 538.895 143.452C539.218 147.19 539.723 152.15 539.829 155.775C540.05 161.004 540.063 167.355 539.829 172.578C539.715 176.208 539.231 181.173 538.895 184.9C538.71 186.83 538.237 189.557 537.962 191.621C537.739 193.286 537.302 195.431 537.028 197.222C536.764 198.943 536.409 201.097 536.094 202.823C535.852 204.145 535.453 205.918 535.16 207.304C535.064 207.757 534.52 209.414 534.226 210.665C534.024 211.526 533.572 212.928 533.292 214.025C533.037 215.026 532.651 216.32 532.358 217.386C532.065 218.452 531.732 219.699 531.424 220.747C525.624 237.498 517.462 253.052 508.389 267.507C507.564 268.822 506.645 270.074 505.651 271.267L296.996 521.556C283.144 538.171 257.642 538.196 243.758 521.608L36.5073 273.992C35.8626 273.222 35.252 272.434 34.6772 271.61C24.641 257.229 14.0896 237.939 8.4576 220.747C8.13198 219.753 7.87283 218.533 7.52373 217.386C7.21539 216.373 6.88492 215.088 6.58987 214.025C6.30029 212.983 5.90067 211.64 5.656 210.665C5.32391 209.341 5.03154 207.615 4.72213 206.184C4.41871 204.781 4.05517 203.079 3.78826 201.703C3.50998 200.268 3.08298 198.531 2.85439 197.222C2.49978 195.193 2.20792 192.603 1.92053 190.501C1.6875 188.367 1.14618 185.686 0.986658 183.78C0.551604 179.419 0.190488 173.577 0.05279 169.217C-0.00664589 165.887 -0.0277601 162.464 0.05279 159.135C0.129105 154.794 0.6494 149.025 0.986658 144.573C1.20622 142.18 1.62741 139.208 1.92053 136.731C2.10485 135.174 2.58899 132.851 2.85439 131.13C3.11716 129.427 3.46503 127.212 3.78826 125.529C4.04813 124.176 4.41793 122.418 4.72213 121.048C4.84839 120.48 5.36292 118.868 5.656 117.688C5.99241 116.213 6.24576 114.524 6.58987 113.207C6.85428 112.195 7.2265 110.883 7.52373 109.846C7.55767 109.728 8.01154 109.056 8.4576 107.606C22.3548 63.8963 50.8402 30.41 86.3672 12.0178C87.4288 11.4683 88.5212 10.9803 89.6344 10.5448C89.9754 10.4114 90.3138 10.2788 90.6381 10.1476C91.515 9.79288 92.5986 9.3408 93.4397 9.02742C94.3454 8.68997 95.5146 8.15499 96.2413 7.9072C97.2742 7.55505 98.6493 6.90761 99.0429 6.78699C100.199 6.43286 101.669 5.9624 102.778 5.66678C103.991 5.34391 105.688 4.73536 106.514 4.54657C107.995 4.20787 109.79 3.70056 111.183 3.42636C112.91 3.08653 115.154 2.54399 116.786 2.30614C119.591 1.89286 123.377 1.36004 126.125 1.18593C131.916 0.728878 139.946 0.728878 145.736 1.18593C148.485 1.36004 152.27 1.89285 155.075 2.30614C156.708 2.54399 158.951 3.08652 160.678 3.42636C162.056 3.69736 163.899 4.19904 165.348 4.54657C166.387 4.79589 167.935 5.3363 169.083 5.66678C170.23 5.99699 171.695 6.41002 172.819 6.78699C173.474 7.00709 174.713 7.56887 175.62 7.9072C176.46 8.2204 177.548 8.67262 178.422 9.02742C179.323 9.39347 180.374 9.77358 181.223 10.1476C182.189 10.5729 183.182 10.8747 184.025 11.2678C185.217 11.8239 186.221 12.0824 186.827 12.3881C197.074 17.5623 212.062 28.7422 220.913 37.0326C228.881 44.4963 265.281 92.1938 268.54 93.043C269.156 93.2034 270.726 93.2034 271.342 93.043C274.665 92.177 311.811 43.488 319.903 35.9124C328.719 27.659 341.993 17.9972 352.122 12.388C352.618 12.1132 353.552 11.9811 354.923 11.2678C356.134 10.7331 356.692 10.1887 356.791 10.1476C357.672 9.78117 358.71 9.37276 359.592 9.0274C360.479 8.68031 361.576 8.20201 362.394 7.90719C363.391 7.54805 364.644 6.97007 365.196 6.78698C366.351 6.40351 367.744 6.02164 368.931 5.66677C370.118 5.3122 371.53 4.85519 372.667 4.54656C373.854 4.22402 375.349 3.67741 376.402 3.42634C377.895 3.07055 379.63 2.61328 381.071 2.30613C383.08 1.8781 385.562 1.51811 387.609 1.18592C391.315 0.765921 396.124 0.169082 399.749 0.0657082C402.835 -0.0222945 406.001 -0.0214721 409.088 0.0657461Z" fill="#3370EE"/>
</svg>
