<svg width="368" height="364" viewBox="0 0 368 364" fill="none" xmlns="http://www.w3.org/2000/svg">
<path d="M278.096 0.0446939C280.6 0.18291 283.858 0.441177 286.349 0.806209C287.371 0.913609 288.998 1.37463 290.158 1.56772C291.361 1.80555 292.796 2.04492 293.967 2.32924C294.697 2.50649 295.686 2.87082 296.506 3.09075C297.272 3.29621 298.241 3.61303 299.045 3.85227C299.276 3.92083 300.184 4.37054 300.95 4.61378C301.264 4.71364 302.175 5.13528 302.854 5.3753C303.396 5.56651 304.164 5.90413 304.759 6.13681C305.353 6.36905 306.081 6.64981 306.664 6.89833C307.305 7.17213 307.988 7.39727 308.568 7.65984C308.634 7.68988 309.144 8.09106 309.838 8.42135C332.58 20.9484 349.541 41.2232 359.99 68.5808C360.366 69.7246 360.96 71.3593 361.26 72.3883C361.469 73.1069 361.695 73.9463 361.895 74.6729C362.093 75.3944 362.359 76.2834 362.529 76.9574C362.727 77.7389 363.048 78.7421 363.164 79.2419C363.365 80.1022 363.734 81.219 363.799 81.5265C363.999 82.4755 364.266 83.6639 364.434 84.5725C364.655 85.7649 364.872 87.1719 365.069 88.3801C365.261 89.5599 365.557 91.08 365.704 92.1876C365.919 93.8176 366.192 95.9213 366.339 97.5182C366.558 100.059 366.901 103.431 366.973 105.895C367.124 109.45 367.132 113.767 366.973 117.318C366.896 119.785 366.566 123.161 366.339 125.694C366.212 127.006 365.891 128.86 365.704 130.263C365.552 131.395 365.256 132.853 365.069 134.071C364.889 135.241 364.649 136.705 364.434 137.878C364.27 138.777 363.998 139.982 363.799 140.924C363.734 141.232 363.364 142.358 363.164 143.209C363.027 143.794 362.72 144.748 362.529 145.493C362.356 146.174 362.094 147.053 361.895 147.778C361.695 148.502 361.469 149.35 361.26 150.062C357.317 161.45 351.768 172.023 345.601 181.85C345.039 182.744 344.415 183.595 343.739 184.406L201.896 354.551C192.48 365.846 175.144 365.863 165.705 354.586L24.8175 186.259C24.3792 185.735 23.9642 185.199 23.5734 184.639C16.7508 174.863 9.57804 161.75 5.74944 150.062C5.52808 149.387 5.35191 148.558 5.1146 147.778C4.90499 147.089 4.68034 146.216 4.47976 145.493C4.2829 144.785 4.01125 143.872 3.84492 143.209C3.61917 142.309 3.42041 141.135 3.21008 140.163C3.00381 139.209 2.75669 138.052 2.57524 137.117C2.38607 136.142 2.0958 134.96 1.9404 134.071C1.69934 132.691 1.50093 130.93 1.30556 129.502C1.14715 128.051 0.779166 126.229 0.670725 124.933C0.374978 121.968 0.129493 117.997 0.0358864 115.033C-0.00451785 112.769 -0.0188712 110.442 0.0358864 108.179C0.0877647 105.229 0.441459 101.307 0.670725 98.2797C0.819983 96.6536 1.1063 94.6328 1.30556 92.9491C1.43087 91.8903 1.75998 90.3111 1.9404 89.1415C2.11903 87.9836 2.35551 86.4781 2.57524 85.334C2.7519 84.4142 3.00329 83.2191 3.21008 82.2879C3.29591 81.9014 3.64568 80.8056 3.84492 80.0034C4.07361 79.0011 4.24583 77.8527 4.47976 76.9574C4.6595 76.2694 4.91254 75.3781 5.1146 74.6728C5.13767 74.5923 5.4462 74.1359 5.74944 73.1498C15.1967 43.4364 34.5609 20.6726 58.712 8.16968C59.4337 7.79606 60.1763 7.46434 60.9331 7.16832C61.1648 7.07765 61.3949 6.98748 61.6153 6.89831C62.2115 6.65716 62.9481 6.34983 63.5199 6.13679C64.1355 5.9074 64.9303 5.54372 65.4244 5.37528C66.1265 5.13589 67.0613 4.69576 67.3289 4.61376C68.1146 4.37302 69.1138 4.05321 69.8683 3.85225C70.6923 3.63276 71.8463 3.21908 72.4076 3.09073C73.4147 2.86049 74.6345 2.51562 75.5818 2.32922C76.7559 2.09821 78.2809 1.72939 79.3909 1.56771C81.2975 1.28676 83.8708 0.924549 85.7393 0.806191C89.6758 0.495488 95.1344 0.495488 99.0709 0.806191C100.939 0.924549 103.513 1.28675 105.419 1.56771C106.529 1.72939 108.054 2.0982 109.228 2.32922C110.165 2.51345 111.418 2.85448 112.403 3.09073C113.109 3.26022 114.161 3.62759 114.942 3.85225C115.722 4.07673 116.718 4.3575 117.481 4.61376C117.927 4.76338 118.769 5.14528 119.386 5.37528C119.957 5.58819 120.696 5.89561 121.29 6.13679C121.903 6.38563 122.617 6.64403 123.195 6.89831C123.851 7.18738 124.526 7.39258 125.099 7.65982C125.91 8.03783 126.592 8.21358 127.004 8.42134C133.97 11.9388 144.159 19.5388 150.175 25.1746C155.592 30.2484 180.337 62.6729 182.552 63.2502C182.971 63.3592 184.038 63.3592 184.457 63.2502C186.716 62.6615 211.968 29.563 217.469 24.4131C223.462 18.8025 232.485 12.2344 239.37 8.42133C239.708 8.2345 240.343 8.14467 241.275 7.65981C242.098 7.29634 242.478 6.92621 242.545 6.8983C243.143 6.64919 243.849 6.37156 244.449 6.13679C245.052 5.90084 245.798 5.57568 246.354 5.37527C247.031 5.13112 247.883 4.73822 248.258 4.61376C249.044 4.35307 249.99 4.09348 250.798 3.85224C251.604 3.61121 252.564 3.30053 253.337 3.09073C254.144 2.87147 255.16 2.49989 255.876 2.32921C256.891 2.08735 258.071 1.7765 259.051 1.5677C260.416 1.27672 262.103 1.032 263.494 0.806183C266.014 0.52067 269.283 0.114941 271.747 0.0446681C273.845 -0.0151557 275.998 -0.0145967 278.096 0.0446939Z" fill="#FFA3EA"/>
</svg>
