<svg width="354" height="433" viewBox="0 0 354 433" fill="none" xmlns="http://www.w3.org/2000/svg">
<path d="M219.939 287.117C240.955 283.627 258.192 279.365 272.044 273.617M88.4385 262.617C80.3341 256.264 73.0098 250.125 66.4742 244.117M147.939 152.117C156.258 169.659 163.307 169.033 176.139 162.544C177.131 162.042 178.351 162.433 178.885 163.408C185.712 175.88 192.29 178.126 206.939 172.117M272.044 273.617C314.773 255.887 325.28 224.028 315.095 157.135C314.999 156.505 315.221 155.835 315.672 155.383C364.938 106.006 366.015 89.1902 290.815 91.5886C290.271 91.6059 289.716 91.3999 289.324 91.0217C242.11 45.3909 184.552 25.2813 134.562 36.8363C133.866 36.9972 133.117 36.763 132.623 36.2472C83.2266 -15.3154 61.5744 -6.15444 72.8151 71.7675C72.8915 72.2973 72.747 72.8705 72.4249 73.298C12.319 153.075 12.0046 194.044 66.4742 244.117M272.044 273.617C295.307 330.674 297.014 361.853 260.626 414.347C260.504 414.523 260.351 414.683 260.18 414.811C257.45 416.85 254.879 418.661 252.439 420.242M252.439 420.242L260.438 395.117M252.439 420.242C235.664 431.104 225.02 431.071 210.939 419.232M208.939 395.117C208.939 395.117 206.246 415.001 207.439 416.117C208.631 417.234 209.796 418.272 210.939 419.232M210.939 419.232C178.208 430.01 159.761 431.752 126.439 416.117M126.439 416.117C111.191 432.41 101.595 433.553 81.9386 416.117M126.439 416.117C127.024 409.088 127.939 398.117 127.939 398.117M81.9386 416.117L74.9386 398.117M81.9386 416.117C79.4982 415.044 77.1655 413.908 74.9386 412.71M66.4742 244.117C60.2068 257.564 54.8584 270.413 50.5222 282.617M74.9386 412.71C55.6563 415.631 44.9279 411.724 26.4065 392.602C26.1064 392.292 25.9089 391.88 25.8542 391.452C20.6746 351.001 8.86907 324.65 7.99044 322.73C7.95239 322.647 7.93251 322.598 7.90619 322.511C7.0883 319.789 -8.64302 265.795 29.4385 262.617C34.9171 261.731 39.4229 265.749 50.5222 282.617M74.9386 412.71C32.5824 389.915 28.5113 344.567 50.5222 282.617M105.964 35.22C87.4842 21.4625 82.6033 24.8785 83.7492 47.0306C83.824 48.4761 85.3786 49.352 86.6568 48.673L105.706 38.5535C106.988 37.8724 107.128 36.0869 105.964 35.22ZM317.101 132.34C336.094 112.048 331.976 107.87 308.071 109.879C306.751 109.99 305.914 111.342 306.393 112.578L313.806 131.696C314.334 133.059 316.103 133.407 317.101 132.34Z" stroke="white" stroke-width="7" stroke-linecap="round"/>
<circle cx="117.939" cy="122.117" r="14" fill="white"/>
<circle cx="73.9386" cy="134.117" r="14" fill="#E195B1"/>
<circle cx="280.939" cy="195.117" r="14" fill="#E195B1"/>
<circle cx="254.939" cy="160.117" r="14" fill="white"/>
</svg>
