<svg width="365" height="369" viewBox="0 0 365 369" fill="none" xmlns="http://www.w3.org/2000/svg">
<path d="M65.6148 249.241C61.0287 247.791 56.6882 246.117 52.5969 244.241M353.115 160.241C355.096 150.656 352.623 143.449 343.615 128.241C338.738 122.408 333.002 118.162 318.615 109.241C311.356 -11.5712 289.283 -24.053 218.615 49.7415C218.615 49.7415 190.738 58.2071 189.115 46.7415C188.292 40.9253 194.615 32.7415 194.615 32.7415C182.048 30.3894 164.115 42.2415 162.115 49.7415C160.115 57.2415 133.615 49.7415 133.615 49.7415L121.115 46.7415C52.1148 -10.7585 28.1667 14.7199 30.1148 114.741C12.3966 133.044 3.89572 154.336 4.00096 174.741M353.115 160.241C358.057 174.765 360.008 182.377 353.115 189.241M353.115 160.241C346.344 152.991 341.542 150.631 331.615 148.741M353.115 189.241C342.714 213.822 332.245 225.34 312.615 234.984M353.115 189.241C347.464 179.263 343.726 175.278 335.615 172.241M298.115 241.241C303.464 239.167 308.264 237.121 312.615 234.984M312.615 234.984C315.734 243.526 317.064 248.041 316.615 254.241C316.767 268.172 318.028 274.409 321.615 283.741M321.615 283.741C363.115 254.241 389.615 312.741 306.615 332.241M321.615 283.741C323.935 305.044 322.35 316.154 306.615 332.241M306.615 332.241C287.934 341.858 275.243 344.401 250.115 345.741M250.115 345.741C231.132 363.935 221.509 366.214 207.115 348.741M250.115 345.741C253.648 330.921 252.763 324.025 248.115 313.241M207.115 348.741C187.563 351.995 176.513 352.826 156.615 352.241M207.115 348.741C205.995 343.063 205.46 338.599 205.543 334.241M156.615 352.241C138.228 367.048 128.063 371.597 111.115 348.741M156.615 352.241C157.691 345.353 158.279 340.199 158.288 335.741M111.115 348.741C95.0244 350.408 85.4383 348.467 67.1148 338.741M111.115 348.741C106.706 333.69 106.615 311.741 106.615 311.741M67.1148 338.741C53.9551 326.706 48.7605 318.339 45.1148 299.241M67.1148 338.741C17.6148 335.241 16.1148 300.241 45.1148 299.241M45.1148 299.241C43.554 276.874 45.3917 264.871 52.5969 244.241M52.5969 244.241C30.6992 234.204 15.9381 218.397 8.85302 200.241M156.115 322.241C157.613 326.817 158.298 330.862 158.288 335.741M158.288 335.741C149.427 335.254 144.775 335.209 140.115 337.741M208.115 318.741C206.476 324.768 205.634 329.441 205.543 334.241M205.543 334.241C212.591 335.688 216.545 335.997 223.615 331.741M4.00096 174.741C20.0371 163.728 26.9344 160.327 35.1148 159.741M4.00096 174.741C4.04618 183.508 5.67969 192.11 8.85302 200.241M8.85302 200.241C22.0941 192.992 28.3716 188.937 35.1148 181.741M177.615 156.741C179.115 142.741 192.615 140.741 197.115 156.741M262.615 57.2415C270.753 47.762 297.615 40.2415 288.615 77.7415L262.615 57.2415ZM56.6148 94.7415C54.432 60.085 61.5355 53.4464 88.6148 63.7415L56.6148 94.7415Z" stroke="black" stroke-width="7"/>
<path d="M121.615 164.241C121.615 174.459 110.115 183.241 94.6148 184.741C79.1509 184.741 67.6148 181.241 68.6148 170.241C68.6148 160.024 82.6508 148.241 98.1148 148.241C113.579 148.241 121.615 154.024 121.615 164.241Z" fill="#E195B1"/>
<path d="M301.615 164.741C301.615 173.026 297.37 175.298 284.115 175.298C270.86 175.298 259.615 166.026 259.615 157.741C259.615 149.457 264.615 143.741 280.615 143.741C295.115 144.741 301.615 156.457 301.615 164.741Z" fill="#E195B1"/>
<path d="M248.615 136.741C248.615 144.473 243.19 151.741 237.115 151.741C227.115 151.741 222.115 141.973 222.115 134.241C222.115 126.509 227.54 119.241 233.615 119.241C239.69 119.241 248.115 127.741 248.615 136.741Z" fill="black"/>
<path d="M150.115 139.75C150.115 148.034 142.623 155.241 134.615 155.241C126.607 155.241 121.115 148.526 121.115 140.241C121.115 131.957 127.107 122.741 135.115 122.741C143.123 122.741 150.115 131.466 150.115 139.75Z" fill="black"/>
</svg>
